<svg xmlns="http://www.w3.org/2000/svg" width="93" height="62" viewBox="0 0 93 62">
  <path id="Cross_Channels" d="M91.8,36.533H85.6V28.267A8.278,8.278,0,0,0,77.333,20H13.267A8.278,8.278,0,0,0,5,28.267V63.4a8.278,8.278,0,0,0,8.267,8.267H37.612l-1.24,6.2H31.867a2.067,2.067,0,1,0,0,4.133H58.733a2.067,2.067,0,1,0,0-4.133H54.228l-1.24-6.2H67V75.8A6.2,6.2,0,0,0,73.2,82H91.8A6.2,6.2,0,0,0,98,75.8V42.733A6.2,6.2,0,0,0,91.8,36.533ZM40.588,77.867l1.24-6.2h6.944l1.24,6.2ZM67,67.533H13.267A4.132,4.132,0,0,1,9.133,63.4V61.333H67Zm0-24.8V57.2H9.133V28.267a4.132,4.132,0,0,1,4.133-4.133H77.333a4.132,4.132,0,0,1,4.133,4.133v8.267H73.2A6.2,6.2,0,0,0,67,42.733ZM93.867,75.8A2.073,2.073,0,0,1,91.8,77.867H73.2A2.073,2.073,0,0,1,71.133,75.8V72.7H93.867Zm0-7.233H71.133v-18.6H93.867Zm0-22.733H71.133v-3.1A2.073,2.073,0,0,1,73.2,40.667H91.8a2.073,2.073,0,0,1,2.067,2.067Z" transform="translate(-5 -20)" fill="#111"/>
</svg>
