<svg xmlns="http://www.w3.org/2000/svg" xmlns:xlink="http://www.w3.org/1999/xlink" width="62" height="62" viewBox="0 0 62 62">
  <defs>
    <clipPath id="clip-path">
      <rect id="Rectangle_79" data-name="Rectangle 79" width="62" height="62" fill="#111"/>
    </clipPath>
  </defs>
  <g id="Tech_Constraints" transform="translate(0.397)">
    <rect id="Rectangle_78" data-name="Rectangle 78" width="62" height="62" transform="translate(-0.397)" fill="none"/>
    <g id="Group_146" data-name="Group 146" transform="translate(-0.397)" clip-path="url(#clip-path)">
      <path id="Path_96" data-name="Path 96" d="M65.782,24.385a5.77,5.77,0,0,0-5.77-5.77H25.4a5.77,5.77,0,0,0-5.77,5.77v25a5.77,5.77,0,0,0,5.77,5.77H60.012a5.77,5.77,0,0,0,5.77-5.77Zm-3.845,0v25a1.923,1.923,0,0,1-1.925,1.921H25.4A1.923,1.923,0,0,1,23.47,49.39v-25A1.923,1.923,0,0,1,25.4,22.463H60.012a1.923,1.923,0,0,1,1.925,1.922Z" transform="translate(-3.783 -1.307)" fill="#111" fill-rule="evenodd"/>
      <path id="Path_97" data-name="Path 97" d="M37.421,26H25.881a1.924,1.924,0,0,0-1.923,1.923,7.143,7.143,0,0,1-1.1,3.416,15.575,15.575,0,0,1-2.182,2.918,1.923,1.923,0,0,0,1.359,3.283H41.267a1.923,1.923,0,0,0,1.359-3.283,15.575,15.575,0,0,1-2.182-2.918,7.143,7.143,0,0,1-1.1-3.416A1.924,1.924,0,0,0,37.421,26Zm-9.862,3.847a13.9,13.9,0,0,1-1.68,3.847H37.423a13.9,13.9,0,0,1-1.68-3.847Z" transform="translate(7.27 24.005)" fill="#111" fill-rule="evenodd"/>
      <path id="Path_98" data-name="Path 98" d="M227.386,92.986a1.924,1.924,0,0,0-1.923-1.923,1.924,1.924,0,0,1-1.923-1.923v-22.2a1.923,1.923,0,0,0-2.2-1.9,11.673,11.673,0,0,1-1.65.117,11.476,11.476,0,0,1-4.945-1.112A1.924,1.924,0,0,0,212,65.777V96.832a5.769,5.769,0,0,0,5.77,5.77h3.847a5.769,5.769,0,0,0,5.77-5.77Zm-11.54-24.474v28.32a1.924,1.924,0,0,0,1.923,1.923h3.847a1.924,1.924,0,0,0,1.923-1.923V94.578a5.771,5.771,0,0,1-3.847-5.439V69A15.365,15.365,0,0,1,215.846,68.512Z" transform="translate(-203.851 -41.057)" fill="#111" fill-rule="evenodd"/>
      <path id="Path_99" data-name="Path 99" d="M219.458,55.782c.081,2.077.081,4.71.081,6.851a1.924,1.924,0,0,0,1.923,1.923h3.847a1.924,1.924,0,0,0,1.923-1.923v-6.78a3.846,3.846,0,0,1,6.268-2.995l.087.073a15.731,15.731,0,0,1,5.185,11.624,15.316,15.316,0,0,1-2.027,7.634,1.923,1.923,0,0,1-1.669.967h-5.92a1.924,1.924,0,0,0-1.923,1.923v2.8a1.925,1.925,0,0,1-1.65,1.9,15.6,15.6,0,0,1-2.2.156,15.384,15.384,0,0,1-10.118-26.974c.019-.017.037-.033.056-.048a3.766,3.766,0,0,1,6.135,2.862Zm11.62.071v6.78a5.77,5.77,0,0,1-5.77,5.77h-3.847a5.769,5.769,0,0,1-5.77-5.77c0-2.062,0-4.591-.075-6.607a11.537,11.537,0,0,0,7.768,20.07V75.08a5.772,5.772,0,0,1,5.77-5.77H233.9a11.48,11.48,0,0,0,1.023-4.754A11.883,11.883,0,0,0,231.079,55.853Zm0-.006Z" transform="translate(-207.544 -52.001)" fill="#111" fill-rule="evenodd"/>
      <path id="Path_100" data-name="Path 100" d="M17.923,33.847H41A1.923,1.923,0,0,0,41,30H17.923a1.923,1.923,0,0,0,0,3.847Z" transform="translate(9.458 27.698)" fill="#111" fill-rule="evenodd"/>
    </g>
  </g>
</svg>
