<svg xmlns="http://www.w3.org/2000/svg" width="47.724" height="62.228" viewBox="0 0 47.724 62.228">
  <g id="Interactions" transform="translate(-4 -1020.86)">
    <path id="circle16205" d="M20.752,1021.36v4.067h2.031v-4.067ZM10.277,1025.7l-1.436,1.438,2.873,2.875,1.436-1.438-2.873-2.875Zm22.981,0-2.873,2.875,1.436,1.438,2.873-2.875-1.436-1.437Zm-11.49,1.756a10.134,10.134,0,0,0-5.079,18.917v9.556H13.134a4.851,4.851,0,0,0-4.571,5.084v.373c0,.026.01.031.012.055a1.6,1.6,0,0,0,.091.4,1.622,1.622,0,0,1-.079-.33,21.321,21.321,0,0,0,42.637-.465v-4.107a4.851,4.851,0,0,0-4.571-5.083H26.846v-5.485a10.134,10.134,0,0,0-5.079-18.917Zm0,2.033a8.107,8.107,0,0,1,5.079,14.441v-3.257a5.092,5.092,0,0,0-5.079-5.084h0a5.092,5.092,0,0,0-5.079,5.084v3.253a8.107,8.107,0,0,1,5.079-14.441ZM4.5,1037.628v2.034H8.563v-2.034Zm30.472,0v2.034h4.063v-2.034Zm-13.2,0a3.02,3.02,0,0,1,3.047,3.05v12.2a1.016,1.016,0,0,0,1.016,1.017H46.653a2.81,2.81,0,0,1,2.539,3.05v4.107a19.295,19.295,0,0,1-38.586.354c0-.011,0-.022,0-.033,0-.037-.008-.021-.012-.043v-.318a2.81,2.81,0,0,1,2.539-3.05H17.7a1.017,1.017,0,0,0,1.016-1.017v-16.268a3.02,3.02,0,0,1,3.047-3.05Zm-10.054,9.643-2.873,2.876,1.436,1.438,2.873-2.875-1.436-1.438Zm20.108,0-1.436,1.438,2.873,2.875,1.436-1.438Z" transform="translate(0 0)" stroke="#000" stroke-width="1"/>
  </g>
</svg>
