<svg xmlns="http://www.w3.org/2000/svg" width="21.539" height="10.339" viewBox="0 0 21.539 10.339">
  <g id="Group_115" data-name="Group 115" transform="translate(21.539) rotate(90)">
    <path id="Path_99" data-name="Path 99" d="M5.169,6.031a.782.782,0,0,1-.6-.258L.258,1.465a.833.833,0,0,1,0-1.206.833.833,0,0,1,1.206,0L5.773,4.566a.833.833,0,0,1,0,1.206.782.782,0,0,1-.6.258Z" transform="translate(4.308 0)" fill="#7d7d7d"/>
    <path id="Path_100" data-name="Path 100" d="M.862,6.031a.782.782,0,0,1-.6-.258.833.833,0,0,1,0-1.206L4.566.258a.833.833,0,0,1,1.206,0,.833.833,0,0,1,0,1.206L1.465,5.773a.782.782,0,0,1-.6.258Z" transform="translate(0 0)" fill="#7d7d7d"/>
    <path id="Path_101" data-name="Path 101" d="M.862,21.539c-.517,0-.862-.479-.862-1.2V1.2C0,.479.345,0,.862,0s.862.479.862,1.2V20.343C1.723,21.061,1.379,21.539.862,21.539Z" transform="translate(4.308 0)" fill="#7d7d7d"/>
  </g>
</svg>
